<?xml version="1.0" encoding="UTF-8" standalone="no"?>
<!DOCTYPE svg PUBLIC "-//W3C//DTD SVG 1.1//EN" "http://www.w3.org/Graphics/SVG/1.1/DTD/svg11.dtd">
<svg width="100%" height="100%" viewBox="0 0 500 500" version="1.1" xmlns="http://www.w3.org/2000/svg" xmlns:xlink="http://www.w3.org/1999/xlink" xml:space="preserve" xmlns:serif="http://www.serif.com/" style="fill-rule:evenodd;clip-rule:evenodd;stroke-linecap:round;stroke-linejoin:round;stroke-miterlimit:1.5;">
    <path d="M504.136,8.515C504.136,8.515 470.123,4.802 433.912,20.069C414.976,24.704 372.129,40.553 360.003,54.083C358.096,56.211 345.485,74.044 338.275,75.527C331.268,76.969 315.151,102.488 306.468,102.621C302.274,102.685 277.174,131.157 278.624,140.016C279.14,143.166 277.487,153.653 270.537,158.506C261.838,164.578 255.602,186.668 256.301,205.007C256.911,221.028 240.903,230.823 240.139,240.139C239.413,249.003 242.246,264.041 242.464,279.882C242.609,290.386 241.283,301.243 245.111,310.889C251.064,325.892 253.233,342.857 255.917,347.908C263.322,361.844 270.947,372.571 273.278,376.707C281.297,390.933 286.8,398.87 296.308,404.32C311.992,413.311 319.758,424.637 322.076,425.121C343.246,429.54 351.861,449.866 359.143,450.894C369.031,452.289 397.31,462.663 402.197,463.519C408.727,464.662 416.266,474.06 427.078,476.167C442.582,479.188 458.328,486.772 461.281,486.775C479.048,486.792 493.842,489.657 501.557,490.05C563.107,493.19 452.436,510.441 425.754,488.399C399.072,466.357 394.432,489.559 375.87,476.798C357.309,464.037 342.227,470.998 317.865,444.316C293.503,417.633 255.22,403.712 250.58,365.429C245.94,327.146 223.898,316.705 216.937,288.863C209.977,261.021 221.578,222.738 232.019,204.176C242.459,185.615 259.861,141.531 259.861,124.13C259.861,106.729 283.063,85.847 298.144,84.687C313.225,83.527 315.545,46.404 341.067,46.404C366.589,46.404 371.23,34.803 390.951,25.522C410.673,16.241 416.473,-1.16 435.035,1.16C453.596,3.48 519.617,-5.631 504.136,8.515Z" style="fill:rgb(89,44,19);"/>
    <path d="M502.759,11.971C487.558,11.971 448.452,16.617 439.141,25.928C436.51,28.558 419.41,28.253 414.779,30.568C399.531,38.192 381.826,40.319 370.696,51.45C362.577,59.568 354.084,70.381 345.174,79.292C343.028,81.437 334.2,83.304 331.252,86.252C326.924,90.581 326.882,97.583 321.972,102.494C317.294,107.172 306.522,109.822 301.09,115.255C295.198,121.147 289.865,131.12 284.849,136.136C282.803,138.182 286.194,146.206 284.849,148.897C280.034,158.527 270.31,166.917 265.127,172.099C257.491,179.736 266.151,200.35 262.807,210.382C260.899,216.106 258.4,225.23 254.686,228.944C252.508,231.122 255.673,242.226 254.686,245.185C248.399,264.047 245.876,304.82 258.167,317.111C260.336,319.281 256.72,343.507 260.487,347.273C264.541,351.328 263.149,359.216 266.287,362.354C270.133,366.201 276.291,370.038 280.208,373.955C284.854,378.601 281.476,387.984 286.009,392.517C289.599,396.107 311.28,410.953 316.171,413.398C321.06,415.843 330.706,414.012 334.733,418.039C340.786,424.092 345.968,436.234 350.974,441.241C353.86,444.127 378.161,449.867 383.457,455.162C385.185,456.89 406.145,457.805 410.139,459.802C413.071,461.268 414.36,465.463 418.259,466.763C433.609,471.879 447.098,470.08 457.702,480.684C462.074,485.056 503.966,489.223 503.966,481.206" style="fill:none;stroke:rgb(104,50,24);stroke-width:2px;"/>
    <path d="M504.836,17.228C495.639,17.228 473.842,17.909 469.303,22.447C466.922,24.828 456.344,22.646 454.222,24.767C451.738,27.252 414.422,44.221 410.139,45.649C406.523,46.854 400.757,43.959 397.378,45.649C392.203,48.237 380.361,52.225 376.496,56.09C370.442,62.144 360.727,69.538 355.614,74.651C352.621,77.645 353.113,86.433 349.814,89.733C343.443,96.103 333.821,101.085 326.612,108.294C322.915,111.991 323.551,121.796 319.651,125.695C315.463,129.884 302.144,136.348 298.77,143.097C297.327,145.983 299.18,149.237 297.61,152.378C292.053,163.49 283.638,172.15 275.568,180.22C274.601,181.187 276.535,185.054 275.568,186.02C264.44,197.148 277.714,230.452 270.928,244.025C268.749,248.383 258.183,305.543 261.647,312.47C265.931,321.038 270.723,323.662 275.568,333.352C279.749,341.713 284.808,373.914 291.809,380.916C292.75,381.857 312.181,400.382 312.691,400.637C317.319,402.951 339.875,405.779 342.853,408.758C351.738,417.642 358.119,430.984 366.055,438.921C370.529,443.394 384.144,441.584 390.417,444.721C394.294,446.66 400.527,445.135 404.338,447.041C408.384,449.064 411.348,452.891 413.619,455.162C414.716,456.259 419.609,455.351 420.58,456.322C430.995,466.738 451.446,462.826 461.183,472.563C463.246,474.627 467.103,472.623 469.303,473.723C473.25,475.697 479.52,478.971 484.766,478.971L500.315,478.971C500.315,478.971 505.173,477.119 504.308,476.254" style="fill:none;stroke:rgb(104,50,24);stroke-width:2px;"/>
    <path d="M500.094,23.147C488.376,23.147 487.123,26.029 477.322,30.93C471.492,33.845 463.096,32.395 458.761,36.73C455.512,39.979 442.556,36.712 437.879,39.05C421.717,47.131 406.921,56.849 391.475,64.573C380.831,69.895 380.401,79.127 374.074,85.454C371.198,88.329 366.033,88.854 363.633,91.255C360.099,94.789 358.236,101.292 354.352,105.176C348.789,110.739 341.351,113.536 336.951,117.937C332.953,121.934 334.237,128.771 331.15,131.858C321.764,141.244 324.105,142.467 319.549,151.579C314.706,161.267 303.352,171.257 297.508,177.102C294.41,180.199 298.248,196.502 296.348,200.303C289.073,214.852 280.244,286.288 289.387,295.431C291.707,297.751 287.067,307.032 289.387,309.352C299.792,319.757 293.987,360.835 302.148,371.997C320.503,397.102 326.611,388.289 354.352,402.159C356.807,403.387 356.971,408.258 358.993,410.28C359.838,411.126 363.649,410.296 364.793,411.44C369.965,416.612 374.784,420.271 378.714,424.201C385.814,431.301 408.772,434.537 414.677,440.443C416.985,442.75 425.511,441.219 428.598,442.763C431.632,444.28 434.508,447.513 437.879,450.883C439.722,452.727 444.214,451.766 447.16,453.204C474.071,466.335 486.073,465.322 505.905,465.322" style="fill:none;stroke:rgb(104,50,24);stroke-width:2px;"/>
    <path d="M501.684,29.77C501.684,38.262 481.833,32.22 477.322,36.73C468.818,45.234 452.955,44.856 443.679,54.132C440.779,57.032 430.338,52.392 427.438,55.292C416.023,66.707 395.597,73.212 383.354,85.454C375.716,93.093 375.144,104.106 367.113,112.136C361.911,117.338 350.982,123.627 345.071,129.538C339.09,135.519 330.722,162.448 325.35,167.821C322.088,171.082 325.67,186.062 321.87,189.863C317.205,194.527 313.902,203.477 310.269,210.744C308.034,215.214 310.697,223.379 309.109,228.146C304.411,242.237 294.075,254.971 299.828,272.229C303.799,284.142 295.402,303.981 300.988,315.153C303.902,320.981 308.92,325.027 311.429,332.554C315.711,345.402 312.024,362.152 321.87,371.997C325.808,375.935 333.145,375.315 338.111,377.798C350.271,383.878 362.971,393.708 375.234,399.839C376.479,400.462 387.97,407.516 389.057,408.602C398.414,417.959 405.375,413.936 415.473,424.034C419.201,427.762 440.741,433.592 444.056,436.907C448.967,441.817 497.19,451.667 506.115,451.667" style="fill:none;stroke:rgb(104,50,24);stroke-width:2px;"/>
    <path d="M504.932,40.443C479.928,40.443 467.73,55.331 449.248,64.573C436.94,70.726 418.813,65.309 410.269,73.853C406.578,77.544 400.215,83.751 397.276,89.631C397.137,89.907 396.657,89.631 396.348,89.631C389.971,89.631 383.168,102.81 380.57,105.408C380.106,105.872 378.25,104.944 377.786,105.408C374.166,109.028 370.456,129.443 367.577,132.322C364.9,135 364.131,141.337 361.081,144.387C351.323,154.145 345.71,165.326 336.951,174.085C336.169,174.867 332.57,192.387 332.31,192.647C325.811,199.146 326.299,213.507 320.245,219.561C318.374,221.433 321.46,229.197 320.245,231.626C317.18,237.758 316.299,257.846 312.821,261.324C312.198,261.947 310.744,271.313 311.893,272.461C314.751,275.319 316.533,286.96 316.533,292.879C316.533,296.643 316.091,319.351 316.533,319.793C326.071,329.33 326.711,342.933 333.238,355.988C335.062,359.634 344.073,358.47 346.232,360.628C351.533,365.93 360.923,369.751 367.577,376.405C374.45,383.278 379.848,392.388 387.067,399.607C395.017,407.557 414.718,408.697 422.334,416.313C424.931,418.91 432.852,418.323 436.255,420.025C441.078,422.437 446.654,425.689 452.032,428.378C455.758,430.24 465.795,426.363 468.737,429.306C475.411,435.979 490.065,441.371 502.148,441.371" style="fill:none;stroke:rgb(104,50,24);stroke-width:2px;"/>
    <path d="M504.004,48.795C497.428,52.083 493.143,53.298 487.299,56.22C485.734,57.002 481.064,55.03 479.874,56.22C468.198,67.896 447.183,70.349 436.255,81.278C432.793,84.739 423.242,82.226 419.549,85.918C416.205,89.263 410.117,90.71 406.556,94.271C404.452,96.375 400.988,98.932 400.988,102.624C400.988,102.933 401.245,103.38 400.988,103.552C395.495,107.214 389.69,110.21 385.211,114.689C381.031,118.868 382.389,126.828 379.642,132.322C375.904,139.798 371.028,152.073 365.721,157.38C363.528,159.573 364.896,166.558 362.937,168.517C356.13,175.324 352.239,188.495 346.232,194.503L346.232,196.359C346.232,203.953 344.422,208.284 342.519,213.992C340.47,220.139 337.66,226.494 335.095,231.626C334.41,232.994 336.135,237.082 335.095,238.122C332.054,241.163 330.351,255.961 327.67,261.324C326.157,264.349 330.548,293.441 331.382,298.447C332.087,302.673 330.287,310.177 332.31,314.224C336.85,323.304 344.13,348.318 349.016,353.204C352.606,356.794 362.542,357.449 365.721,360.628C367.536,362.443 367.84,366.459 369.433,368.053C371.499,370.118 375.654,370.561 377.786,372.693C383.614,378.521 389.298,387.266 397.276,391.255C409.589,397.411 420.548,399.179 432.542,405.176C434.374,406.092 453.844,410.7 453.888,410.744C456.004,412.86 459.262,412.039 462.241,413.528C476.585,420.701 482.579,424.665 502.148,424.665" style="fill:none;stroke:rgb(104,50,24);stroke-width:2px;"/>
    <path d="M503.076,62.716C496.214,67.144 486.404,64.556 478.946,68.285C473.726,70.895 467.595,77.779 463.169,82.206C458.773,86.602 431.015,100.139 426.046,102.624C409.944,110.675 400.57,125.315 389.851,136.034C386.017,139.869 375.845,161.262 373.146,166.661C371.841,169.27 374.02,177.851 372.218,179.654C367.829,184.042 367.935,193.217 363.865,197.287C361.717,199.435 363.011,210.987 362.009,213.992C359.859,220.442 352.355,240.352 349.016,243.691C348.011,244.696 343.744,267.524 341.591,269.677C337.828,273.44 344.187,286.746 345.303,290.095C347.577,296.914 349.016,303.411 349.016,313.296C349.016,314.64 348.428,317.689 349.016,318.865C350.184,321.201 351.726,327.144 353.656,329.074C355.214,330.631 359.961,333.331 361.081,335.57C362.982,339.374 379.438,355.542 384.283,358.772C386.293,360.113 389.13,359.907 390.779,361.556C398.941,369.718 404.396,377.957 413.981,387.542C418.439,392 429.474,390.042 433.47,394.039C436.989,397.557 451.394,398.042 452.96,399.607C462.433,409.08 486.16,409.816 502.148,409.816" style="fill:none;stroke:rgb(104,50,24);stroke-width:2px;"/>
    <path d="M504.932,75.709C501.662,77.345 495.289,75.144 492.867,77.566C485.068,85.365 473.175,93.444 462.241,98.911C455.255,102.404 438.685,104.833 434.399,109.12C424.305,119.214 409.29,127.732 400.06,136.962C390.964,146.058 387.431,176.14 380.57,189.863C379.016,192.97 379.865,200.777 377.786,202.856C366.962,213.68 369.89,231.64 362.937,245.547C361.947,247.527 363.927,250.992 362.937,252.972C358.17,262.506 358.736,300.743 365.721,307.728C366.911,308.918 366.453,327.022 369.433,330.002C374.292,334.861 383.939,339.575 390.779,342.995C393.414,344.312 416.223,368.438 419.549,371.765C420.121,372.336 423.492,372.344 424.19,372.693C428.589,374.893 431.471,379.582 436.255,381.974C439.881,383.787 445.299,381.855 449.248,383.83C467.192,392.802 482.265,394.039 504.004,394.039" style="fill:none;stroke:rgb(104,50,24);stroke-width:2px;"/>
    <path d="M504.932,88.702C498.392,88.702 485.309,96.26 480.802,100.767C478.018,103.552 469.665,100.767 466.881,103.552C460.715,109.718 443.836,114.532 439.967,118.401C434.791,123.577 425.483,131.029 419.549,136.962C413.929,142.582 404.955,143.877 400.988,151.811C394.932,163.924 397.226,201.049 390.779,207.496C389.387,208.888 392.171,214.456 390.779,215.849C384.383,222.244 385.349,231.21 382.426,239.979C371.255,273.494 368.953,300.751 390.779,322.577C393.855,325.653 394.124,332.418 398.204,336.498C401.743,340.037 410.318,339.332 413.053,342.067C424.849,353.863 437.007,364.253 452.032,371.765C454.629,373.063 464.403,372.999 465.953,374.549C467.133,375.729 471.935,380.325 473.378,381.046C475.244,381.979 477.879,381.696 478.946,383.83C482.363,390.663 507.716,390.223 507.716,388.47" style="fill:none;stroke:rgb(104,50,24);stroke-width:2px;"/>
    <path d="M504.932,101.695C499.094,101.695 496.419,107.344 491.011,110.048C486.298,112.404 465.453,121.686 463.169,123.969C459.621,127.517 456.545,134.242 451.104,136.962C443.062,140.983 434.032,145.128 425.118,148.099C419.955,149.82 415.302,163.09 413.053,167.589C412.597,168.5 405.73,173.056 404.7,174.085C403.043,175.743 408.261,205.792 405.628,208.424C401.706,212.346 403.886,218.405 400.988,224.201C399.454,227.269 394.9,229.361 393.563,230.698C392.904,231.357 397.324,263.277 398.204,265.037C400.882,270.392 398.08,281.618 401.916,285.454C402.126,285.664 402.046,305.333 402.844,307.728C404.683,313.244 415.464,319.42 419.549,323.505C425.05,329.006 431.209,337.021 437.183,342.995C438.317,344.129 441.979,344.079 442.751,344.851C445.696,347.796 446.433,353.652 452.96,356.916C457.532,359.202 461.51,358.406 465.953,360.628C475.435,365.369 489.121,377.333 501.22,377.333" style="fill:none;stroke:rgb(104,50,24);stroke-width:2px;"/>
    <path d="M504.932,114.689C500.075,114.689 472.586,132.185 468.737,136.034C463.422,141.35 451.284,138.639 444.607,145.315C435.241,154.681 421.072,172.897 414.909,185.222C410.934,193.172 412.125,206.377 412.125,216.777C412.125,234.886 409.192,254.53 416.765,269.677C418.589,273.324 417.174,281.223 419.549,283.598C421.819,285.868 417.781,311.528 421.406,315.153C428.814,322.561 454.527,332.496 460.385,338.354C468.107,346.077 477.634,355.332 488.227,360.628C491.376,362.203 499.477,360.628 503.076,360.628" style="fill:none;stroke:rgb(104,50,24);stroke-width:2px;"/>
    <path d="M503.076,128.61C500.916,129.69 495.193,129.068 493.795,130.466C483.128,141.133 469.288,146.896 453.888,154.596C445.517,158.781 441.57,166.913 435.327,173.157C431.189,177.295 435.831,198.135 432.542,204.712C431.104,207.589 428.317,208.937 426.046,211.208C424.044,213.21 426.356,218.94 425.118,221.417C419.899,231.855 425.022,262.156 430.686,267.821C432.145,269.279 431.614,279.348 431.614,281.742C431.614,293.122 431.653,299.453 436.255,308.656C442.933,322.012 461.769,318.393 467.809,324.433C478.777,335.401 479.299,347.635 502.148,347.635" style="fill:none;stroke:rgb(104,50,24);stroke-width:2px;"/>
    <path d="M504.932,139.747C492.223,139.747 477.61,157.788 468.737,166.661C464.614,170.784 454.936,173.965 451.104,177.798C446.075,182.826 445.953,192.229 440.895,197.287C437.532,200.65 439.039,233.38 439.039,240.907C439.039,256.661 448.093,288.94 455.744,296.591C457.609,298.456 456.395,304.389 457.6,306.8C461.59,314.779 473.092,318.722 480.802,322.577C489.49,326.921 492.617,333.714 503.076,333.714" style="fill:none;stroke:rgb(104,50,24);stroke-width:2px;"/>
    <path d="M504.004,148.099C492.667,148.099 484.656,161.879 478.018,168.517C475.896,170.639 475.889,177.143 473.378,179.654C472.041,180.99 469.636,182.467 467.809,184.294C466.853,185.251 467.838,189.834 466.881,190.791C461.252,196.42 452.225,202.662 445.535,209.352C444.847,210.041 444.644,227.022 445.535,227.914C452.627,235.005 452.059,249.314 456.672,258.54C458.651,262.498 455.259,269.149 456.672,273.389C460.345,284.406 461.688,294.558 466.881,304.944C470.799,312.779 485.618,317.009 496.58,317.009C500.007,317.009 510.501,318.467 510.501,315.153" style="fill:none;stroke:rgb(104,50,24);stroke-width:2px;"/>
    <path d="M504.932,157.38C493.444,157.38 496.669,169.355 491.939,174.085C483.682,182.342 473.552,188.586 467.809,200.071C466.305,203.08 469.357,209.661 466.881,212.136C460.323,218.694 464.097,243.647 464.097,254.828C464.097,256.701 462.815,266.539 464.097,267.821C465.981,269.705 466.507,273.015 468.737,275.245C470.904,277.412 468.388,288.467 469.665,291.023C469.776,291.244 472.587,291.16 473.378,291.951C482.253,300.826 487.798,306.8 501.22,306.8" style="fill:none;stroke:rgb(104,50,24);stroke-width:2px;"/>
    <path d="M504.004,178.726C486.132,178.726 494.442,195.713 486.371,203.784C484.215,205.939 479.069,209.106 477.09,213.064C472.992,221.261 479.196,232.055 475.234,239.979C474.213,242.021 471.588,245.481 470.593,246.475C469.195,247.873 470.593,257.337 470.593,259.468C470.593,261.501 470.225,272.093 471.522,273.389C473.407,275.274 473.581,280.915 477.09,282.67C481.54,284.895 488.56,289.5 491.939,292.879C494,294.939 505.86,292.982 505.86,296.591" style="fill:none;stroke:rgb(104,50,24);stroke-width:2px;"/>
    <path d="M502.193,191.422C498.342,191.422 500.182,194.382 497.916,196.649C495.005,199.56 495.443,205.299 492.689,208.053C490.013,210.729 488.058,215.535 485.561,218.031C483.376,220.217 483.193,225.152 481.285,227.06C480.997,227.347 481.285,229.372 481.285,229.911C481.285,232.663 480.81,234.849 480.81,237.514C480.81,237.81 481.052,240.123 480.81,240.365C479.632,241.543 480.344,244.632 479.384,245.592C477.167,247.809 477.398,256.825 478.909,259.847C479.963,261.955 478.31,265.775 479.384,267.925C480.833,270.822 482.956,273.274 485.561,274.577C485.918,274.756 487.645,274.76 487.937,275.052C491.265,278.38 496.162,285.031 501.717,285.031" style="fill:none;stroke:rgb(104,50,24);stroke-width:2px;"/>
    <path d="M501.717,207.102C501.717,210.013 497.155,214.515 495.065,216.606C494.523,217.147 494.947,218.741 494.59,219.457C493.981,220.674 492.664,223.309 491.739,225.159C490.393,227.85 489.517,231.182 487.462,233.237C486.41,234.289 486.987,239.207 486.987,240.84C486.987,248.863 486.143,257.102 490.313,261.272C491.522,262.481 490.8,266.986 492.214,268.4C495.795,271.981 497.19,273.152 504.093,273.152" style="fill:none;stroke:rgb(104,50,24);stroke-width:2px;"/>
    <path d="M503.143,228.96C499.952,228.96 500.095,232.484 498.391,234.187C494.69,237.889 495.065,240.984 495.065,247.017C495.065,248.187 494.349,252.954 495.065,253.669C495.698,254.303 497.282,253.986 497.916,254.62C498.391,255.095 497.916,256.521 498.391,256.996C499.156,257.761 502.193,256.624 502.193,258.421" style="fill:none;stroke:rgb(104,50,24);stroke-width:2px;"/>
</svg>
